<?xml version="1.0" encoding="iso-8859-1"?>
<!-- Generator: Adobe Illustrator 19.0.0, SVG Export Plug-In . SVG Version: 6.00 Build 0)  -->
<svg version="1.1" id="Layer_1" xmlns="http://www.w3.org/2000/svg" xmlns:xlink="http://www.w3.org/1999/xlink" x="0px" y="0px"
	 viewBox="0 0 512.003 512.003" style="enable-background:new 0 0 512.003 512.003;" xml:space="preserve">
<g>
	<path style="fill:#CEE8FA;" d="M158.296,282.887l-69.718,82.438l43.627,131.463h36.154l10.473-76.723
		C173.998,397.22,165.339,338.7,158.296,282.887z"/>
	<path style="fill:#CEE8FA;" d="M352.883,281.913c-6.885,51.092-15.216,104.86-20.619,131.502l11.381,83.372h36.154l43.627-131.463
		L352.883,281.913z"/>
</g>
<path style="fill:#2D527C;" d="M256.001,256.496c-36.627,0-66.425-29.798-66.425-66.425s29.798-66.425,66.425-66.425
	s66.425,29.798,66.425,66.425c0,8.401-6.812,15.212-15.212,15.212s-15.212-6.81-15.212-15.212c0-19.851-16.15-36.002-36.002-36.002
	S220,170.22,220,190.071s16.15,36.002,36.002,36.002c8.4,0,15.212,6.81,15.212,15.212S264.402,256.496,256.001,256.496z"/>
<polygon style="fill:#CEE8FA;" points="271.204,488.24 240.8,488.24 225.578,340.658 286.424,340.658 "/>
<g>
	<path style="fill:#2D527C;" d="M435.041,355.503l-67.035-79.265c6.508-52.032,11.768-102.098,12.028-121.642
		C381.126,72.8,269.664,5.012,264.918,2.166s-10.66-2.889-15.447-0.117c-4.793,2.778-117.431,68.962-117.509,150.778
		c-0.011,11.695,1.693,34.392,5.064,67.465c0.852,8.357,8.315,14.436,16.675,13.592c8.357-0.852,14.444-8.318,13.592-16.675
		c-3.173-31.14-4.915-53.995-4.907-64.353c0.046-49.043,62.403-99.11,94.585-119.73c31.83,21.039,93.301,71.901,92.644,121.067
		c-0.446,33.461-18.936,183.514-30.046,244.665c-0.785,4.288-1.527,8.164-2.212,11.538c-0.339,1.672-0.394,3.391-0.163,5.081
		l11.38,83.372c1.03,7.536,7.466,13.154,15.072,13.154H379.8c6.556,0,12.373-4.198,14.437-10.42l43.627-131.461
		C439.533,365.086,438.464,359.549,435.041,355.503z M368.819,481.576H356.92l-9.238-67.686c0.356-1.806,0.726-3.731,1.106-5.759
		c0.006-0.032,0.015-0.061,0.021-0.093c0.231-1.228,0.467-2.519,0.706-3.841c3.9-21.327,8.868-52.626,13.736-86.468l43.049,50.903
		L368.819,481.576z"/>
	<path style="fill:#2D527C;" d="M286.424,325.446h-60.847c-4.306,0-8.409,1.825-11.295,5.021c-2.884,3.198-4.279,7.467-3.836,11.751
		l6.798,65.923h-25.25c-4.781-25.88-12.213-76.483-18.608-127.161c-0.755-5.989-4.979-10.965-10.767-12.679
		c-5.793-1.719-12.043,0.154-15.94,4.761l-69.718,82.44c-3.423,4.048-4.492,9.583-2.822,14.614l43.627,131.463
		c2.064,6.222,7.883,10.42,14.437,10.42h36.155c7.606,0,14.042-5.618,15.072-13.154l8.228-60.278h28.724l5.285,51.235
		c0.799,7.756,7.334,13.651,15.131,13.651h30.405c7.798,0,14.332-5.895,15.131-13.651l15.221-147.582
		c0.441-4.284-0.952-8.554-3.836-11.751C294.835,327.272,290.731,325.446,286.424,325.446z M155.084,481.576h-11.899
		l-37.482-112.942l41.969-49.627c5.887,43.618,11.862,82.344,15.736,101.579L155.084,481.576z M257.481,473.029h-2.959
		l-5.281-51.206c-0.002-0.017-0.003-0.033-0.005-0.05l-6.797-65.903h27.126L257.481,473.029z"/>
</g>
<g>
</g>
<g>
</g>
<g>
</g>
<g>
</g>
<g>
</g>
<g>
</g>
<g>
</g>
<g>
</g>
<g>
</g>
<g>
</g>
<g>
</g>
<g>
</g>
<g>
</g>
<g>
</g>
<g>
</g>
</svg>
